PathFileType  4	(X/Y/Z) C:\Users\antoi\Documents\MyRepositories\mobilecap\ResultsAnalysis
DataRate	CameraRate	NumFrames	NumMarkers	Units	OrigDataRate	OrigDataStartFrame	OrigNumFrames
100.0	100.0	4	51	mm	100.0	102	271
Frame#	Time	r_knee			r_shank_antsup			r_ankle			r_calc			r_5meta			r_toe			L_knee			L_shank_antsup			L_ankle			L_calc			L_5meta			L_toe			r_sh2			r_sh3			r_sh4			L_sh2			L_sh3			r_thigh1			r_thigh2			r_thigh3			r_thigh4			r_thigh5			L_thigh1			L_thigh2			L_thigh3			L_thigh4			r.ASIS			r.PSIS			L.ASIS			L.PSIS			C7			R_Shoulder			L_Shoulder			R_Sternum			L_Sternum			R_humerus			R_elbow_med			R_elbow_lat			R_forearm			R_wrist_radius			R_wrist_ulna			L_humerus			L_elbow_med			L_elbow_lat			L_forearm			L_wrist_radius			L_wrist_ulna			R_HJC			L_HJC			R_HJC_reg			L_HJC_reg			
		X1	Y1	Z1	X2	Y2	Z2	X3	Y3	Z3	X4	Y4	Z4	X5	Y5	Z5	X6	Y6	Z6	X7	Y7	Z7	X8	Y8	Z8	X9	Y9	Z9	X10	Y10	Z10	X11	Y11	Z11	X12	Y12	Z12	X13	Y13	Z13	X14	Y14	Z14	X15	Y15	Z15	X16	Y16	Z16	X17	Y17	Z17	X18	Y18	Z18	X19	Y19	Z19	X20	Y20	Z20	X21	Y21	Z21	X22	Y22	Z22	X23	Y23	Z23	X24	Y24	Z24	X25	Y25	Z25	X26	Y26	Z26	X27	Y27	Z27	X28	Y28	Z28	X29	Y29	Z29	X30	Y30	Z30	X31	Y31	Z31	X32	Y32	Z32	X33	Y33	Z33	X34	Y34	Z34	X35	Y35	Z35	X36	Y36	Z36	X37	Y37	Z37	X38	Y38	Z38	X39	Y39	Z39	X40	Y40	Z40	X41	Y41	Z41	X42	Y42	Z42	X43	Y43	Z43	X44	Y44	Z44	X45	Y45	Z45	X46	Y46	Z46	X47	Y47	Z47	X48	Y48	Z48	X49	Y49	Z49	X50	Y50	Z50	X51	Y51	Z51	

102	1.01000000	-721.13759	917.62868	-431.00691	-740.58756	839.52834	-415.72815	-1014.33354	598.74041	-445.07231	-1088.84921	587.84895	-502.62214	-947.09436	463.87390	-393.24010	-894.54604	463.57209	-443.58880	-667.40399	961.02783	-775.14352	-684.22620	844.84381	-790.14858	-872.19918	580.24440	-732.28226	-942.69640	565.89724	-671.61713	-734.48536	464.36467	-738.93229	-784.02671	448.49358	-791.14867	-817.22231	755.43742	-410.24929	-796.15891	890.59765	-403.81909	-879.31201	810.02010	-404.56077	-758.91962	895.22533	-783.98537	-812.56149	787.78404	-771.39281	-714.36214	1230.12326	-381.93862	-680.80112	1126.10008	-397.45676	-726.81808	1082.00622	-377.15519	-821.31726	1192.42732	-389.56800	-779.58830	1083.23403	-392.97396	-722.61183	1281.84477	-766.63698	-654.90180	1161.58674	-783.06878	-824.90433	1223.88986	-753.26300	-753.30888	1107.18574	-780.35483	-710.08241	1409.74676	-432.79796	-893.45056	1488.76478	-493.39806	-729.28644	1429.27909	-691.32117	-903.07234	1495.29693	-600.64749	-793.22578	1989.10777	-519.83525	-754.63280	1963.71118	-378.39411	-738.04070	1980.09914	-652.58934	-656.31436	1892.42042	-487.35697	-663.65249	1886.84787	-544.42149	-634.83493	1840.34961	-194.98459	-576.64688	1719.95323	-202.21582	-575.49368	1791.99581	-140.33223	-468.15438	1869.80121	-228.86487	-394.15457	1911.72723	-306.54445	-377.26157	1907.80733	-264.63191	-662.59645	1899.60280	-875.48190	-613.11913	1780.96414	-924.14099	-623.73264	1858.54280	-950.30277	-480.25394	1934.68307	-888.75434	-413.58550	1972.33680	-827.59514	-393.45688	1963.64731	-859.08492	-807.20866	1348.33726	-439.01446	-820.33528	1364.32483	-668.45170	-797.63094	1353.74481	-465.43741	-812.93322	1364.13537	-636.01701	
103	1.02000000	-704.82324	921.13308	-429.81436	-721.86202	842.29289	-414.42367	-985.62899	590.46477	-444.71040	-1059.34080	577.14821	-502.69604	-914.35331	457.73354	-392.43179	-861.68057	458.91479	-442.78806	-656.28361	962.58315	-775.55830	-670.59341	845.75913	-790.66493	-849.38383	574.70128	-732.54222	-918.93917	559.40751	-671.90055	-709.40413	461.03118	-740.03087	-758.98868	444.02170	-791.73634	-794.90580	755.10296	-409.10897	-779.32821	890.84803	-403.28674	-859.18065	806.95849	-404.29904	-746.76093	893.76173	-784.09895	-796.73365	784.46082	-771.54720	-702.53299	1234.40109	-381.26286	-667.85337	1130.74813	-396.43879	-712.99491	1086.07427	-376.32767	-808.97944	1195.08685	-389.21105	-765.75974	1086.64464	-392.13005	-710.31128	1283.98354	-766.02829	-642.89973	1163.64982	-782.75283	-812.95307	1226.40313	-754.64042	-741.53219	1109.64025	-781.73073	-699.06975	1412.61802	-433.18040	-883.08517	1489.82491	-492.99931	-718.76866	1431.20538	-691.69461	-893.24008	1495.71143	-599.86387	-781.86970	1991.51284	-520.08736	-741.83742	1963.75903	-376.73180	-726.40721	1981.26963	-654.21112	-645.20785	1894.11226	-488.05014	-653.38771	1887.43884	-545.08446	-627.63267	1838.88309	-190.27860	-573.46128	1717.00288	-194.17001	-571.54531	1790.28256	-133.78410	-461.39262	1864.18393	-221.31193	-385.74899	1903.43053	-299.16793	-369.30514	1899.66010	-256.93303	-654.80942	1897.01593	-877.36707	-611.86019	1777.60294	-927.37099	-620.71448	1855.25130	-953.33888	-473.61384	1927.39868	-896.92366	-404.62369	1963.46158	-837.48613	-385.34844	1953.17819	-868.63407	-795.31789	1350.20211	-438.66468	-809.46459	1365.51986	-668.08694	-785.90715	1356.07195	-465.11284	-802.11174	1365.46727	-635.64017	
104	1.03000000	-689.30506	923.38194	-428.24132	-703.52806	843.50778	-413.39002	-955.36192	579.65418	-444.14218	-1028.27450	564.42558	-502.31281	-880.10934	448.63264	-392.31719	-827.30567	451.93035	-442.49994	-645.25188	963.35192	-776.05377	-657.11192	845.88325	-791.12933	-826.29897	568.35889	-733.32489	-894.97683	552.09009	-672.32827	-683.97192	457.11585	-740.90897	-733.65566	438.51276	-791.98987	-772.15506	753.11038	-407.92795	-762.92857	889.25867	-402.41131	-838.90339	801.63808	-403.62390	-734.73415	891.30507	-784.00848	-780.78263	780.43290	-771.93940	-690.66708	1237.31863	-380.90200	-654.79496	1134.17016	-395.81423	-699.33516	1088.99437	-375.46614	-796.74652	1196.78196	-388.42684	-752.13020	1088.86351	-391.21992	-697.89505	1285.35304	-765.53162	-630.88691	1164.82468	-782.42552	-800.90735	1228.16191	-756.02764	-729.75330	1111.29549	-782.96646	-688.20670	1414.81206	-433.39007	-872.64490	1490.33104	-493.10199	-708.27911	1432.33111	-692.00302	-882.90656	1495.59210	-599.17324	-770.09280	1992.82676	-520.54405	-729.09655	1963.21968	-375.28627	-714.54002	1981.48098	-655.87357	-633.79706	1894.60338	-488.69618	-642.20561	1887.45369	-545.43174	-620.49675	1837.44908	-185.51970	-569.96905	1714.33579	-186.02628	-567.26719	1788.80893	-127.39719	-454.08868	1858.73253	-213.61490	-376.65853	1895.11611	-291.38878	-360.84571	1891.35973	-249.01097	-647.13371	1894.09819	-879.60147	-610.29453	1773.84443	-930.18955	-617.49476	1851.52283	-956.15557	-466.75973	1919.35187	-904.60676	-395.37932	1953.87754	-847.60758	-377.58799	1942.46041	-879.25448	-783.65142	1351.51187	-438.33019	-798.48911	1366.01479	-667.76205	-774.58607	1357.61915	-464.93953	-791.08627	1366.07783	-635.52306	
105	1.04000000	-674.41772	924.62489	-426.28826	-685.46475	843.32890	-412.36330	-923.68390	567.10154	-443.21297	-995.75255	550.31033	-501.75722	-844.55559	437.37202	-392.71661	-791.72134	443.13147	-442.62405	-634.32837	963.12376	-776.15926	-643.68803	845.22583	-791.49598	-803.00034	561.25167	-734.66001	-870.87830	543.94588	-673.07081	-658.42777	452.63916	-741.74667	-708.09494	431.87062	-791.74753	-749.36377	749.72693	-406.63943	-747.04566	886.06447	-401.28406	-818.53498	794.76708	-402.40632	-722.73799	887.94688	-783.66058	-764.79671	775.46994	-772.26887	-678.83214	1238.96039	-380.72260	-641.52328	1136.28684	-395.33037	-685.87446	1090.70759	-374.58749	-784.51144	1197.36347	-387.48950	-738.66446	1089.88298	-390.15913	-685.55267	1285.77030	-764.89706	-619.03134	1165.03065	-782.14140	-788.97808	1229.00617	-757.15710	-718.01025	1112.04196	-784.03782	-677.57238	1416.08898	-433.43506	-862.19415	1490.40256	-493.33847	-697.65571	1432.59795	-692.23130	-872.12469	1495.08999	-598.55398	-757.92966	1992.94168	-521.14348	-716.48305	1962.05406	-374.35143	-702.44755	1980.54931	-657.67694	-622.15720	1893.95647	-489.22351	-630.38695	1886.66842	-545.83555	-613.62143	1836.12595	-180.88387	-565.92291	1712.21842	-178.19582	-562.61775	1787.76452	-121.26084	-446.32753	1853.58213	-206.18008	-366.94338	1886.92641	-283.66138	-351.90154	1883.02635	-241.18377	-639.89663	1891.29111	-881.97923	-608.17174	1769.86756	-932.71542	-613.87702	1847.50027	-958.86735	-459.87317	1910.79086	-911.64970	-386.39105	1943.61890	-857.12063	-369.89657	1931.78226	-889.46986	-772.36892	1352.15956	-437.99007	-787.52352	1365.90357	-667.44816	-763.82081	1358.39457	-464.94184	-779.93231	1366.00078	-635.67904	
